<svg version="1.1" id="Layer_1" xmlns="http://www.w3.org/2000/svg" xmlns:xlink="http://www.w3.org/1999/xlink" x="0px" y="0px"
	 width="100%" height="100%" viewBox="0 0 499.4 99.7" enable-background="new 0 0 499.4 99.7" xml:space="preserve">
<g>
	<path fill="#E74631" stroke="#E74631" stroke-width="7.3974" stroke-miterlimit="10" d="M45,7.8c-2.9-5.5-7.7-5.5-10.8-0.1
		l-29.2,52c-3,5.4-0.8,9.8,4.9,9.8h57.4c5.7,0,8-4.5,5.1-9.9L45,7.8z"/>
	<g>
		<path fill="#E74631" d="M90.3,50.7c0.3,2.2,1,3.9,2,4.9c1.8,2,5,3,9.4,3c2.7,0,4.8-0.3,6.5-0.8c3.2-1,4.7-2.9,4.7-5.6
			c0-1.6-0.8-2.8-2.3-3.7c-1.5-0.9-4-1.6-7.4-2.3l-5.7-1.1c-5.6-1.1-9.5-2.4-11.6-3.7c-3.6-2.2-5.4-5.7-5.4-10.4
			c0-4.3,1.7-7.9,5.2-10.8s8.6-4.3,15.4-4.3c5.7,0,10.5,1.3,14.5,4c4,2.7,6.1,6.6,6.3,11.7h-10.7c-0.2-2.9-1.6-5-4.3-6.2
			c-1.8-0.8-4-1.2-6.6-1.2c-2.9,0-5.3,0.5-7,1.6c-1.7,1-2.6,2.5-2.6,4.4c0,1.7,0.9,3,2.6,3.9c1.1,0.6,3.5,1.2,7.1,2l9.3,2
			c4.1,0.9,7.1,2,9.2,3.5c3.2,2.3,4.7,5.6,4.7,9.9c0,4.4-1.9,8.1-5.6,11c-3.7,2.9-9,4.4-15.9,4.4c-7,0-12.5-1.4-16.5-4.3
			c-4-2.9-6-6.8-6-11.8H90.3z"/>
		<path fill="#E74631" d="M126.6,36.9v-6.7h5.5v-10h10.2v10h6.4v6.7h-6.4v18.9c0,1.5,0.2,2.4,0.6,2.7c0.4,0.4,1.7,0.5,3.7,0.5
			c0.3,0,0.6,0,1,0c0.3,0,0.7,0,1,0v7l-4.9,0.2c-4.8,0.2-8.2-0.6-9.9-2.3c-1.2-1.1-1.7-2.7-1.7-4.9v-22H126.6z"/>
		<path fill="#E74631" d="M177,29.1c0.1,0,0.4,0,0.9,0v9.6c-0.6-0.1-1.2-0.1-1.7-0.1c-0.5,0-0.9,0-1.2,0c-4.1,0-6.9,1.2-8.3,3.7
			c-0.8,1.4-1.2,3.5-1.2,6.4v17.1h-10.3V29.9h9.8v6.2c1.6-2.4,3-4,4.1-4.9c1.9-1.5,4.4-2.2,7.5-2.2C176.7,29.1,176.9,29.1,177,29.1z
			"/>
		<path fill="#E74631" d="M209.5,30.6c2.7,1.1,5,2.9,6.8,5.3c1.6,2.1,2.7,4.6,3.1,7.4c0.3,1.6,0.4,4,0.3,7.1h-28.6
			c0.2,3.6,1.5,6.1,4.1,7.5c1.6,0.9,3.5,1.3,5.7,1.3c2.3,0,4.2-0.5,5.7-1.6c0.8-0.6,1.5-1.4,2.1-2.5h10.5c-0.3,2.1-1.5,4.3-3.8,6.5
			c-3.5,3.5-8.4,5.2-14.8,5.2c-5.2,0-9.8-1.5-13.8-4.4c-4-2.9-6-7.7-6-14.3c0-6.2,1.8-10.9,5.4-14.2c3.6-3.3,8.3-5,14-5
			C203.7,29,206.7,29.5,209.5,30.6z M194.1,38.7c-1.5,1.4-2.4,3.2-2.7,5.5h17.7c-0.2-2.5-1.1-4.4-2.7-5.6c-1.6-1.3-3.7-1.9-6.1-1.9
			C197.6,36.7,195.6,37.3,194.1,38.7z"/>
		<path fill="#E74631" d="M250.5,30.6c2.7,1.1,5,2.9,6.8,5.3c1.6,2.1,2.7,4.6,3.1,7.4c0.3,1.6,0.4,4,0.3,7.1h-28.6
			c0.2,3.6,1.5,6.1,4.1,7.5c1.6,0.9,3.5,1.3,5.7,1.3c2.3,0,4.2-0.5,5.7-1.6c0.8-0.6,1.5-1.4,2.1-2.5h10.5c-0.3,2.1-1.5,4.3-3.8,6.5
			c-3.5,3.5-8.4,5.2-14.8,5.2c-5.2,0-9.8-1.5-13.8-4.4c-4-2.9-6-7.7-6-14.3c0-6.2,1.8-10.9,5.4-14.2c3.6-3.3,8.3-5,14-5
			C244.7,29,247.8,29.5,250.5,30.6z M235.1,38.7c-1.5,1.4-2.4,3.2-2.7,5.5h17.7c-0.2-2.5-1.1-4.4-2.7-5.6c-1.6-1.3-3.7-1.9-6.1-1.9
			C238.6,36.7,236.6,37.3,235.1,38.7z"/>
		<path fill="#E74631" d="M261.9,36.9v-6.7h5.5v-10h10.2v10h6.4v6.7h-6.4v18.9c0,1.5,0.2,2.4,0.6,2.7c0.4,0.4,1.7,0.5,3.7,0.5
			c0.3,0,0.6,0,1,0c0.3,0,0.7,0,1,0v7l-4.9,0.2c-4.8,0.2-8.2-0.6-9.9-2.3c-1.2-1.1-1.7-2.7-1.7-4.9v-22H261.9z"/>
		<path fill="#E74631" d="M298.5,17.3l7,27.7l1.5,7.7l1.5-7.5l6-27.8h11.7l6.3,27.6l1.6,7.7l1.6-7.4l7.1-27.9h11.3l-14.9,48.3h-10.6
			l-6.4-28.2l-1.9-9.3l-1.9,9.3l-6.4,28.2h-10.3l-15.1-48.3H298.5z"/>
		<path fill="#E74631" d="M373,43.9c1.9-0.2,3.3-0.5,4.1-0.8c1.5-0.6,2.2-1.5,2.2-2.7c0-1.5-0.6-2.5-1.7-3c-1.1-0.6-2.8-0.8-5-0.8
			c-2.5,0-4.2,0.5-5.2,1.6c-0.7,0.8-1.2,1.9-1.5,3.3H356c0.2-3.1,1.2-5.7,2.9-7.7c2.7-3.1,7.4-4.7,14-4.7c4.3,0,8.1,0.8,11.5,2.3
			c3.4,1.6,5,4.5,5,8.8v16.4c0,1.1,0,2.5,0.1,4.1c0.1,1.2,0.3,2.1,0.6,2.5c0.3,0.4,0.8,0.8,1.5,1.1v1.4h-11.2
			c-0.3-0.7-0.5-1.4-0.6-2c-0.1-0.6-0.2-1.4-0.3-2.2c-1.4,1.4-3.1,2.6-4.9,3.6c-2.2,1.2-4.7,1.7-7.5,1.7c-3.6,0-6.5-0.9-8.9-2.8
			c-2.3-1.8-3.5-4.5-3.5-7.8c0-4.4,1.9-7.6,5.6-9.5c2.1-1.1,5.1-1.8,9.1-2.3L373,43.9z M379.2,48.2c-0.7,0.4-1.3,0.7-2,0.9
			c-0.7,0.2-1.6,0.4-2.8,0.6l-2.3,0.4c-2.2,0.3-3.8,0.8-4.7,1.3c-1.6,0.9-2.4,2.2-2.4,4c0,1.6,0.5,2.7,1.5,3.5s2.2,1.1,3.6,1.1
			c2.2,0,4.3-0.6,6.2-1.8c1.9-1.2,2.9-3.3,2.9-6.5V48.2z"/>
		<path fill="#E74631" d="M394.4,36.9v-6.7h5.5v-10H410v10h6.4v6.7H410v18.9c0,1.5,0.2,2.4,0.6,2.7c0.4,0.4,1.7,0.5,3.7,0.5
			c0.3,0,0.6,0,1,0c0.3,0,0.7,0,1,0v7l-4.9,0.2c-4.8,0.2-8.2-0.6-9.9-2.3c-1.2-1.1-1.7-2.7-1.7-4.9v-22H394.4z"/>
		<path fill="#E74631" d="M446.5,42.7c-0.2-1.3-0.7-2.5-1.5-3.6c-1.2-1.4-2.9-2.2-5.4-2.2c-3.5,0-5.8,1.6-7.1,4.7
			c-0.7,1.7-1,3.9-1,6.6c0,2.6,0.3,4.7,1,6.3c1.2,3,3.5,4.5,6.9,4.5c2.4,0,4.1-0.6,5.1-1.8c1-1.2,1.6-2.7,1.8-4.6h10.5
			c-0.2,2.8-1.4,5.5-3.4,8.1c-3.2,4.1-8,6.1-14.3,6.1s-11-1.7-14-5.1c-3-3.4-4.5-7.8-4.5-13.3c0-6.1,1.6-10.9,4.9-14.3
			c3.3-3.4,7.8-5.1,13.6-5.1c4.9,0,9,1,12.1,3c3.1,2,5,5.6,5.6,10.6H446.5z"/>
		<path fill="#E74631" d="M492.2,30.1c2,0.8,3.6,1.9,4.9,3.5c1.1,1.3,1.7,2.7,2,4.1c0.2,1.4,0.4,3.7,0.4,6.9v21h-10.5V43.9
			c0-1.9-0.4-3.5-1.1-4.7c-0.9-1.7-2.7-2.5-5.3-2.5c-2.7,0-4.7,0.8-6.1,2.5c-1.4,1.7-2.1,4-2.1,7.1v19.3h-10.3V17.5h10.3v17
			c1.5-2.1,3.2-3.5,5.1-4.3c1.9-0.8,4-1.2,6.1-1.2C488,29,490.2,29.3,492.2,30.1z"/>
	</g>
	<g>
		<path fill="#FFFFFF" d="M43.8,28.5h-8.7v-7.2h8.7V28.5z M35.1,32h8.7v29.7h-8.7V32z"/>
	</g>
	<g>
		<path fill="#E74631" d="M138.3,83.5V81h2.1v-3.8h3.8V81h2.4v2.5h-2.4v7.1c0,0.6,0.1,0.9,0.2,1c0.2,0.1,0.6,0.2,1.4,0.2
			c0.1,0,0.2,0,0.4,0s0.3,0,0.4,0v2.6l-1.8,0.1c-1.8,0.1-3.1-0.2-3.8-0.9c-0.4-0.4-0.7-1-0.7-1.9v-8.3H138.3z"/>
		<path fill="#E74631" d="M157.4,80.5c0,0,0.2,0,0.3,0v3.6c-0.2,0-0.5,0-0.7,0c-0.2,0-0.3,0-0.5,0c-1.6,0-2.6,0.5-3.1,1.4
			c-0.3,0.5-0.4,1.3-0.4,2.4v6.5h-3.9V80.8h3.7v2.4c0.6-0.9,1.1-1.5,1.6-1.8c0.7-0.6,1.7-0.8,2.8-0.8
			C157.3,80.5,157.3,80.5,157.4,80.5z"/>
		<path fill="#E74631" d="M165.9,86.1c0.7-0.1,1.2-0.2,1.6-0.3c0.6-0.2,0.8-0.5,0.8-1c0-0.6-0.2-0.9-0.6-1.1
			c-0.4-0.2-1.1-0.3-1.9-0.3c-0.9,0-1.6,0.2-2,0.6c-0.3,0.3-0.5,0.7-0.6,1.2h-3.7c0.1-1.2,0.4-2.2,1.1-2.9c1-1.2,2.8-1.8,5.3-1.8
			c1.6,0,3.1,0.3,4.4,0.9c1.3,0.6,1.9,1.7,1.9,3.3v6.2c0,0.4,0,1,0,1.6c0,0.5,0.1,0.8,0.2,0.9c0.1,0.2,0.3,0.3,0.6,0.4v0.5h-4.2
			c-0.1-0.3-0.2-0.5-0.2-0.8c0-0.2-0.1-0.5-0.1-0.8c-0.5,0.5-1.2,1-1.9,1.4c-0.8,0.4-1.8,0.7-2.9,0.7c-1.4,0-2.5-0.3-3.4-1
			s-1.3-1.7-1.3-3c0-1.7,0.7-2.9,2.1-3.6c0.8-0.4,1.9-0.7,3.4-0.9L165.9,86.1z M168.2,87.8c-0.2,0.1-0.5,0.3-0.8,0.3
			c-0.3,0.1-0.6,0.2-1,0.2l-0.9,0.1c-0.8,0.1-1.4,0.3-1.8,0.5c-0.6,0.3-0.9,0.8-0.9,1.5c0,0.6,0.2,1,0.6,1.3
			c0.4,0.3,0.8,0.4,1.4,0.4c0.8,0,1.6-0.2,2.3-0.7s1.1-1.3,1.1-2.4V87.8z"/>
		<path fill="#E74631" d="M184.4,85.7c-0.1-0.5-0.3-1-0.6-1.4c-0.4-0.5-1.1-0.8-2-0.8c-1.3,0-2.2,0.6-2.7,1.8
			c-0.3,0.6-0.4,1.5-0.4,2.5c0,1,0.1,1.8,0.4,2.4c0.5,1.1,1.3,1.7,2.6,1.7c0.9,0,1.6-0.2,1.9-0.7c0.4-0.4,0.6-1,0.7-1.7h4
			c-0.1,1.1-0.5,2.1-1.3,3c-1.2,1.5-3,2.3-5.4,2.3c-2.4,0-4.2-0.6-5.3-1.9c-1.1-1.3-1.7-3-1.7-5c0-2.3,0.6-4.1,1.9-5.4
			c1.2-1.3,3-1.9,5.2-1.9c1.9,0,3.4,0.4,4.6,1.1c1.2,0.8,1.9,2.1,2.1,4H184.4z"/>
		<path fill="#E74631" d="M191,76.2h3.8V86l4.9-5.1h4.8l-5.3,5l5.5,8.4H200l-3.6-5.8l-1.6,1.5v4.3H191V76.2z"/>
		<path fill="#E74631" d="M222.5,80.5c0,0,0.2,0,0.3,0v3.6c-0.2,0-0.5,0-0.7,0c-0.2,0-0.3,0-0.5,0c-1.6,0-2.6,0.5-3.1,1.4
			c-0.3,0.5-0.4,1.3-0.4,2.4v6.5h-3.9V80.8h3.7v2.4c0.6-0.9,1.1-1.5,1.6-1.8c0.7-0.6,1.7-0.8,2.8-0.8
			C222.4,80.5,222.5,80.5,222.5,80.5z"/>
		<path fill="#E74631" d="M231,86.1c0.7-0.1,1.2-0.2,1.6-0.3c0.6-0.2,0.8-0.5,0.8-1c0-0.6-0.2-0.9-0.6-1.1c-0.4-0.2-1.1-0.3-1.9-0.3
			c-0.9,0-1.6,0.2-2,0.6c-0.3,0.3-0.5,0.7-0.6,1.2h-3.7c0.1-1.2,0.4-2.2,1.1-2.9c1-1.2,2.8-1.8,5.3-1.8c1.6,0,3.1,0.3,4.4,0.9
			c1.3,0.6,1.9,1.7,1.9,3.3v6.2c0,0.4,0,1,0,1.6c0,0.5,0.1,0.8,0.2,0.9c0.1,0.2,0.3,0.3,0.6,0.4v0.5h-4.2c-0.1-0.3-0.2-0.5-0.2-0.8
			c0-0.2-0.1-0.5-0.1-0.8c-0.5,0.5-1.2,1-1.9,1.4c-0.8,0.4-1.8,0.7-2.9,0.7c-1.4,0-2.5-0.3-3.4-1s-1.3-1.7-1.3-3
			c0-1.7,0.7-2.9,2.1-3.6c0.8-0.4,1.9-0.7,3.4-0.9L231,86.1z M233.4,87.8c-0.2,0.1-0.5,0.3-0.8,0.3c-0.3,0.1-0.6,0.2-1,0.2l-0.9,0.1
			c-0.8,0.1-1.4,0.3-1.8,0.5c-0.6,0.3-0.9,0.8-0.9,1.5c0,0.6,0.2,1,0.6,1.3c0.4,0.3,0.8,0.4,1.4,0.4c0.8,0,1.6-0.2,2.3-0.7
			s1.1-1.3,1.1-2.4V87.8z"/>
		<path fill="#E74631" d="M249.5,85.7c-0.1-0.5-0.3-1-0.6-1.4c-0.4-0.5-1.1-0.8-2-0.8c-1.3,0-2.2,0.6-2.7,1.8
			c-0.3,0.6-0.4,1.5-0.4,2.5c0,1,0.1,1.8,0.4,2.4c0.5,1.1,1.3,1.7,2.6,1.7c0.9,0,1.6-0.2,1.9-0.7c0.4-0.4,0.6-1,0.7-1.7h4
			c-0.1,1.1-0.5,2.1-1.3,3c-1.2,1.5-3,2.3-5.4,2.3c-2.4,0-4.2-0.6-5.3-1.9c-1.1-1.3-1.7-3-1.7-5c0-2.3,0.6-4.1,1.9-5.4
			c1.2-1.3,3-1.9,5.2-1.9c1.9,0,3.4,0.4,4.6,1.1c1.2,0.8,1.9,2.1,2.1,4H249.5z"/>
		<path fill="#E74631" d="M260.2,79.2h-3.9V76h3.9V79.2z M256.2,80.8h3.9v13.5h-3.9V80.8z"/>
		<path fill="#E74631" d="M266.9,90c0.1,0.6,0.3,1.1,0.5,1.3c0.5,0.5,1.4,0.7,2.7,0.7c0.8,0,1.4-0.1,1.8-0.3
			c0.5-0.2,0.7-0.5,0.7-0.9c0-0.4-0.2-0.7-0.5-0.9c-0.4-0.2-1.7-0.6-4.1-1.1c-1.7-0.4-2.9-0.9-3.6-1.4c-0.7-0.6-1-1.4-1-2.4
			c0-1.2,0.5-2.3,1.6-3.2c1.1-0.9,2.6-1.3,4.6-1.3c1.9,0,3.4,0.3,4.5,1c1.2,0.7,1.8,1.8,2,3.5h-3.9c-0.1-0.5-0.2-0.8-0.4-1.1
			c-0.4-0.5-1.2-0.7-2.2-0.7c-0.8,0-1.5,0.1-1.8,0.4c-0.4,0.2-0.5,0.5-0.5,0.8c0,0.4,0.2,0.7,0.6,0.9c0.4,0.2,1.7,0.5,4.1,1
			c1.5,0.3,2.7,0.8,3.5,1.5c0.8,0.7,1.1,1.5,1.1,2.5c0,1.3-0.5,2.4-1.6,3.3s-2.8,1.3-5.1,1.3c-2.3,0-4.1-0.4-5.2-1.3s-1.7-2-1.7-3.4
			H266.9z"/>
		<path fill="#E74631" d="M298,80.9c0.6,0.2,1.2,0.6,1.7,1.2c0.4,0.5,0.7,1,0.8,1.7c0.1,0.5,0.1,1.1,0.1,2l0,8.5h-4v-8.6
			c0-0.5-0.1-0.9-0.3-1.3c-0.3-0.6-1-0.9-1.9-0.9c-1.1,0-1.8,0.4-2.2,1.2c-0.2,0.4-0.3,0.9-0.3,1.5v8h-3.9v-8c0-0.8-0.1-1.4-0.3-1.7
			c-0.3-0.7-1-1-1.9-1c-1.1,0-1.9,0.3-2.2,1c-0.2,0.4-0.3,0.9-0.3,1.7v8.1h-3.9V80.9h3.8v2c0.5-0.7,0.9-1.2,1.4-1.5
			c0.8-0.5,1.7-0.8,2.9-0.8c1.1,0,2.1,0.2,2.8,0.7c0.6,0.4,1,1,1.3,1.6c0.5-0.8,1.1-1.4,1.9-1.7c0.8-0.4,1.7-0.6,2.7-0.6
			C296.7,80.6,297.3,80.7,298,80.9z"/>
		<path fill="#E74631" d="M312.6,86.7c0.6-0.8,1.6-1.6,2.9-2.3l0.4-0.2c-0.6-0.6-1-1.2-1.3-1.8c-0.3-0.6-0.5-1.3-0.5-1.9
			c0-1.3,0.5-2.4,1.5-3.1c1-0.7,2.3-1.1,3.9-1.1c1.4,0,2.6,0.4,3.6,1.1s1.4,1.7,1.4,2.9c0,1.1-0.3,2-0.8,2.6
			c-0.6,0.7-1.4,1.3-2.5,1.9l2.9,3.2c0.3-0.4,0.6-0.9,0.8-1.4c0.2-0.5,0.3-1,0.3-1.6h3.4c-0.1,1.1-0.4,2.2-0.9,3.4
			c-0.3,0.6-0.8,1.3-1.4,2.1l3.6,4h-4.7l-1.4-1.5c-0.7,0.6-1.3,1-1.9,1.3c-1,0.5-2.3,0.7-3.6,0.7c-2.1,0-3.7-0.5-4.8-1.6
			c-1.2-1.1-1.7-2.3-1.7-3.6C311.7,88.4,312,87.5,312.6,86.7z M316.4,91.1c0.5,0.5,1.3,0.8,2.1,0.8c0.6,0,1.3-0.1,1.8-0.4
			c0.6-0.3,1-0.6,1.4-0.9l-3.8-4.2c-1,0.6-1.6,1.1-2,1.6c-0.3,0.4-0.5,0.9-0.5,1.5C315.6,90,315.8,90.6,316.4,91.1z M318.1,81.3
			c0.2,0.2,0.5,0.7,1.1,1.3c0.6-0.3,1-0.6,1.2-0.9c0.5-0.4,0.7-0.9,0.7-1.5c0-0.4-0.1-0.7-0.4-1c-0.3-0.3-0.7-0.4-1.3-0.4
			c-0.4,0-0.7,0.1-1,0.3c-0.5,0.3-0.7,0.7-0.7,1.2C317.7,80.6,317.8,80.9,318.1,81.3z"/>
		<path fill="#E74631" d="M338.4,94.4l5.1-6.8l-4.9-6.6h4.8l2.5,3.9l2.4-3.9h4.6l-4.9,6.6l5.1,6.9h-4.8l-2.6-4.1l-2.6,4.1H338.4z"/>
		<path fill="#E74631" d="M365.1,81.1c1,0.4,1.9,1.1,2.6,2c0.6,0.8,1,1.7,1.2,2.8c0.1,0.6,0.1,1.5,0.1,2.7h-10.8
			c0.1,1.4,0.6,2.3,1.6,2.9c0.6,0.3,1.3,0.5,2.1,0.5c0.9,0,1.6-0.2,2.2-0.6c0.3-0.2,0.6-0.5,0.8-0.9h4c-0.1,0.8-0.6,1.6-1.4,2.4
			c-1.3,1.3-3.2,2-5.6,2c-2,0-3.7-0.6-5.2-1.7c-1.5-1.1-2.3-2.9-2.3-5.4c0-2.3,0.7-4.1,2-5.4c1.4-1.2,3.1-1.9,5.3-1.9
			C362.9,80.5,364.1,80.7,365.1,81.1z M359.3,84.2c-0.5,0.5-0.9,1.2-1,2.1h6.7c-0.1-0.9-0.4-1.6-1-2.1c-0.6-0.5-1.4-0.7-2.3-0.7
			C360.6,83.4,359.8,83.7,359.3,84.2z"/>
		<path fill="#E74631" d="M382.9,81.6c1,0.7,1.5,1.9,1.5,3.6v9.1h-4v-8.2c0-0.7-0.1-1.3-0.3-1.6c-0.4-0.7-1.1-1-2.2-1
			c-1.3,0-2.2,0.5-2.7,1.5c-0.3,0.5-0.4,1.2-0.4,2.1v7.3H371V80.9h3.8v2c0.5-0.7,1-1.2,1.4-1.5c0.8-0.5,1.8-0.8,3-0.8
			C380.7,80.5,381.9,80.9,382.9,81.6z"/>
		<path fill="#E74631" d="M400.4,92.7c-1.3,1.4-3.2,2.1-5.7,2.1c-2.6,0-4.5-0.7-5.7-2.1c-1.3-1.4-1.9-3.1-1.9-5.1
			c0-1.9,0.6-3.6,1.9-5.1c1.3-1.4,3.2-2.1,5.7-2.1c2.6,0,4.5,0.7,5.7,2.1c1.3,1.4,1.9,3.1,1.9,5.1C402.2,89.6,401.6,91.3,400.4,92.7
			z M397.3,90.8c0.6-0.7,0.9-1.8,0.9-3.1c0-1.4-0.3-2.4-0.9-3.1c-0.6-0.7-1.5-1.1-2.6-1.1c-1.1,0-2,0.4-2.6,1.1
			c-0.6,0.7-0.9,1.8-0.9,3.1c0,1.4,0.3,2.4,0.9,3.1s1.5,1.1,2.6,1.1C395.8,91.9,396.7,91.5,397.3,90.8z"/>
		<path fill="#E74631" d="M417.5,82.3c1.2,1.2,1.8,2.9,1.8,5.1c0,2.4-0.6,4.2-1.8,5.4c-1.2,1.2-2.7,1.9-4.6,1.9
			c-1.2,0-2.2-0.3-3-0.8c-0.4-0.3-0.9-0.7-1.3-1.3v7h-3.8V80.8h3.7v2c0.4-0.6,0.9-1,1.3-1.4c0.9-0.6,1.9-0.9,3.1-0.9
			C414.8,80.6,416.3,81.1,417.5,82.3z M414.5,84.8c-0.5-0.8-1.4-1.2-2.6-1.2c-1.4,0-2.4,0.6-2.9,1.8c-0.3,0.6-0.4,1.5-0.4,2.5
			c0,1.6,0.5,2.7,1.4,3.3c0.6,0.4,1.2,0.6,2,0.6c1.1,0,1.9-0.4,2.5-1.1s0.9-1.8,0.9-3C415.3,86.6,415.1,85.6,414.5,84.8z"/>
		<path fill="#E74631" d="M432.7,80.9c0.7,0.3,1.4,0.7,1.8,1.3c0.4,0.5,0.7,1,0.7,1.6s0.1,1.4,0.1,2.6v7.9h-4v-8.2
			c0-0.7-0.1-1.3-0.4-1.8c-0.4-0.6-1-0.9-2-0.9c-1,0-1.8,0.3-2.3,0.9c-0.5,0.6-0.8,1.5-0.8,2.7v7.3h-3.9V76.2h3.9v6.4
			c0.6-0.8,1.2-1.3,1.9-1.6c0.7-0.3,1.5-0.5,2.3-0.5C431.2,80.5,432,80.6,432.7,80.9z"/>
		<path fill="#E74631" d="M451.5,92.7c-1.3,1.4-3.2,2.1-5.7,2.1c-2.6,0-4.5-0.7-5.7-2.1c-1.3-1.4-1.9-3.1-1.9-5.1
			c0-1.9,0.6-3.6,1.9-5.1c1.3-1.4,3.2-2.1,5.7-2.1c2.6,0,4.5,0.7,5.7,2.1c1.3,1.4,1.9,3.1,1.9,5.1C453.4,89.6,452.8,91.3,451.5,92.7
			z M448.4,90.8c0.6-0.7,0.9-1.8,0.9-3.1c0-1.4-0.3-2.4-0.9-3.1c-0.6-0.7-1.5-1.1-2.6-1.1c-1.1,0-2,0.4-2.6,1.1
			c-0.6,0.7-0.9,1.8-0.9,3.1c0,1.4,0.3,2.4,0.9,3.1s1.5,1.1,2.6,1.1C446.9,91.9,447.8,91.5,448.4,90.8z"/>
		<path fill="#E74631" d="M468.8,82.5c1.1,1.3,1.7,2.9,1.7,5c0,2.1-0.5,3.8-1.6,5.2s-2.6,2.1-4.6,2.1c-1.2,0-2.2-0.2-3-0.7
			c-0.4-0.3-0.9-0.7-1.5-1.4v1.7H456V76.1h3.9v6.5c0.5-0.6,1-1.1,1.6-1.4c0.7-0.4,1.6-0.6,2.7-0.6C466.2,80.6,467.7,81.2,468.8,82.5
			z M465.6,90.7c0.6-0.7,0.8-1.7,0.8-2.9c0-1-0.1-1.8-0.4-2.4c-0.5-1.2-1.5-1.8-2.9-1.8c-1.4,0-2.4,0.6-2.9,1.7
			c-0.3,0.6-0.4,1.4-0.4,2.4c0,1.2,0.3,2.1,0.9,2.9c0.6,0.8,1.4,1.1,2.6,1.1C464.3,91.8,465,91.4,465.6,90.7z"/>
		<path fill="#E74631" d="M477.2,79.2h-3.9V76h3.9V79.2z M473.3,80.8h3.9v13.5h-3.9V80.8z"/>
		<path fill="#E74631" d="M486.8,86.1c0.7-0.1,1.2-0.2,1.6-0.3c0.6-0.2,0.8-0.5,0.8-1c0-0.6-0.2-0.9-0.6-1.1
			c-0.4-0.2-1.1-0.3-1.9-0.3c-0.9,0-1.6,0.2-2,0.6c-0.3,0.3-0.5,0.7-0.6,1.2h-3.7c0.1-1.2,0.4-2.2,1.1-2.9c1-1.2,2.8-1.8,5.3-1.8
			c1.6,0,3.1,0.3,4.4,0.9c1.3,0.6,1.9,1.7,1.9,3.3v6.2c0,0.4,0,1,0,1.6c0,0.5,0.1,0.8,0.2,0.9c0.1,0.2,0.3,0.3,0.6,0.4v0.5h-4.2
			c-0.1-0.3-0.2-0.5-0.2-0.8c0-0.2-0.1-0.5-0.1-0.8c-0.5,0.5-1.2,1-1.9,1.4c-0.8,0.4-1.8,0.7-2.9,0.7c-1.4,0-2.5-0.3-3.4-1
			s-1.3-1.7-1.3-3c0-1.7,0.7-2.9,2.1-3.6c0.8-0.4,1.9-0.7,3.4-0.9L486.8,86.1z M489.2,87.8c-0.2,0.1-0.5,0.3-0.8,0.3
			c-0.3,0.1-0.6,0.2-1,0.2l-0.9,0.1c-0.8,0.1-1.4,0.3-1.8,0.5c-0.6,0.3-0.9,0.8-0.9,1.5c0,0.6,0.2,1,0.6,1.3
			c0.4,0.3,0.8,0.4,1.4,0.4c0.8,0,1.6-0.2,2.3-0.7s1.1-1.3,1.1-2.4V87.8z"/>
	</g>
</g>
</svg>